<?xml version="1.0" encoding="utf-8"?>
<!-- Generator: Adobe Illustrator 23.1.0, SVG Export Plug-In . SVG Version: 6.00 Build 0)  -->
<svg version="1.1" id="Lag_1" xmlns="http://www.w3.org/2000/svg" xmlns:xlink="http://www.w3.org/1999/xlink" x="0px" y="0px"
	 width="72px" height="48px" viewBox="0 0 72 48" enable-background="new 0 0 72 48" xml:space="preserve">
<path fill="none" stroke="#000000" stroke-width="1.8" stroke-linecap="round" stroke-linejoin="round" d="M49.3,36H22.7
	c-1.9,0-3.4-1.5-3.4-3.4l0,0c0-8.4,6.8-15.3,15.3-15.3h2.9c8.4,0,15.3,6.8,15.3,15.3l0,0C52.8,34.5,51.2,36,49.3,36z"/>
<g>
	<path fill="none" stroke="#000000" stroke-width="1.8" stroke-linecap="round" stroke-linejoin="round" d="M28.1,36
		c0,1.8-2,1.8-2,3.7c0,1.8,2,1.8,2,3.7c0,1.8-2,1.8-2,3.7"/>
</g>
<g>
	<path fill="none" stroke="#000000" stroke-width="1.8" stroke-linecap="round" stroke-linejoin="round" d="M34,36
		c0,1.8-2,1.8-2,3.7c0,1.8,2,1.8,2,3.7s-2,1.8-2,3.7"/>
</g>
<g>
	<path fill="none" stroke="#000000" stroke-width="1.8" stroke-linecap="round" stroke-linejoin="round" d="M40,36
		c0,1.8-2,1.8-2,3.7c0,1.8,2,1.8,2,3.7s-2,1.8-2,3.7"/>
</g>
<g>
	<path fill="none" stroke="#000000" stroke-width="1.8" stroke-linecap="round" stroke-linejoin="round" d="M45.9,36
		c0,1.8-2,1.8-2,3.7c0,1.8,2,1.8,2,3.7c0,1.8-2,1.8-2,3.7"/>
</g>
<line fill="none" stroke="#000000" stroke-width="1.8" stroke-linecap="round" stroke-linejoin="round" x1="19.2" y1="10.7" x2="52.7" y2="10.7"/>
<line fill="none" stroke="#000000" stroke-width="1.8" stroke-linecap="round" stroke-linejoin="round" x1="19.2" y1="8.6" x2="19.2" y2="12.9"/>
<line fill="none" stroke="#000000" stroke-width="1.8" stroke-linecap="round" stroke-linejoin="round" x1="24.6" y1="8.6" x2="24.6" y2="12.9"/>
<line fill="none" stroke="#000000" stroke-width="1.8" stroke-linecap="round" stroke-linejoin="round" x1="30.3" y1="8.6" x2="30.3" y2="12.9"/>
<line fill="none" stroke="#000000" stroke-width="1.8" stroke-linecap="round" stroke-linejoin="round" x1="36" y1="8.6" x2="36" y2="12.9"/>
<line fill="none" stroke="#000000" stroke-width="1.8" stroke-linecap="round" stroke-linejoin="round" x1="41.7" y1="8.6" x2="41.7" y2="12.9"/>
<line fill="none" stroke="#000000" stroke-width="1.8" stroke-linecap="round" stroke-linejoin="round" x1="47.4" y1="8.6" x2="47.4" y2="12.9"/>
<line fill="none" stroke="#000000" stroke-width="1.8" stroke-linecap="round" stroke-linejoin="round" x1="52.7" y1="8.6" x2="52.7" y2="12.9"/>
<path fill="none" stroke="#000000" stroke-width="1.8" stroke-linecap="round" stroke-linejoin="round" d="M41.1,22
	c2.5,1.1,4.6,3,6,5.4"/>
</svg>
