<?xml version="1.0" encoding="utf-8"?>
<!-- Generator: Adobe Illustrator 23.1.0, SVG Export Plug-In . SVG Version: 6.00 Build 0)  -->
<svg version="1.1" id="Lag_1" xmlns="http://www.w3.org/2000/svg" xmlns:xlink="http://www.w3.org/1999/xlink" x="0px" y="0px"
	 width="72px" height="48px" viewBox="0 0 72 48" style="enable-background:new 0 0 72 48;" xml:space="preserve">
<g id="Group_193" transform="translate(-1543.778 -12376.413)">
	<g id="Group_177" transform="translate(1544 12376.612)">
		<g id="Group_176" transform="translate(0)">
			<path id="Path_70" d="M33.9,33.4c-1.5-2.7-4.3-4.4-7.4-4.4H1.9c-1,0-1.8,0.8-1.8,1.8c0,0.3,0.1,0.6,0.3,0.9l0.6,0.9
				c1.5,2.5,4.2,4,7,4l0.7,1.5c0.9,2.4,3.2,4,5.7,4.1H16l0.4,1.3c0.8,2.7,2.4,4.2,4.2,4.2h12.5c1,0,1.8-0.8,1.8-1.8v-8.5
				C34.9,36.1,34.6,34.7,33.9,33.4z M32.8,45.7H20.7c-0.8,0-1.7-1.1-2.2-2.8l-0.2-0.6h9.8c0.6,0,1.1-0.5,1.1-1.1s-0.5-1.1-1.1-1.1
				H16.8h0h-2.4c-1.7-0.1-3.2-1.3-3.8-2.9l-0.2-0.5h14.5c0.6,0,1.1-0.5,1.1-1.1s-0.5-1.1-1.1-1.1H8.7l-0.5,0c0,0-0.1,0-0.1,0
				c-2.2,0-4.2-1.1-5.4-3l-0.3-0.4h24c2.3,0,4.4,1.3,5.5,3.3c0.5,1,0.8,2,0.8,3.1L32.8,45.7L32.8,45.7z"/>
		</g>
	</g>
	<g id="Group_179" transform="translate(1580.54 12376.612)">
		<g id="Group_178">
			<path id="Path_71" d="M34.7,30c-0.3-0.6-0.9-0.9-1.5-0.9h-8.1c-0.6,0-1.1,0.5-1.1,1.1s0.5,1.1,1.1,1.1h7.5l-0.3,0.4
				c-1.1,1.9-3.2,3-5.4,3c0,0-0.1,0-0.1,0l-0.5,0.1H10.2c-0.6,0-1.1,0.5-1.1,1.1s0.5,1.1,1.1,1.1h14.5l-0.2,0.5
				c-0.6,1.6-2.1,2.7-3.8,2.9h-2.4h0H6.9c-0.6,0-1.1,0.5-1.1,1.1s0.5,1.1,1.1,1.1h9.8l-0.2,0.6c-0.5,1.6-1.4,2.8-2.2,2.8H2.2v-8.1
				c0-1.1,0.3-2.1,0.8-3.1c1.1-2,3.2-3.3,5.5-3.3h9.7c0.6,0,1.1-0.5,1.1-1.1s-0.5-1.1-1.1-1.1H8.5c-3.1,0-5.9,1.7-7.4,4.4
				c-0.7,1.3-1.1,2.7-1.1,4.1V46c0,1,0.8,1.8,1.8,1.8h12.5c1.8,0,3.4-1.6,4.2-4.2l0.4-1.3h1.7c2.5-0.1,4.8-1.7,5.7-4.1l0.7-1.5
				c2.9,0,5.5-1.5,7-4l0.6-0.9C35,31.2,35,30.5,34.7,30z"/>
		</g>
	</g>
</g>
</svg>
