<?xml version="1.0" encoding="utf-8"?>
<!-- Generator: Adobe Illustrator 22.1.0, SVG Export Plug-In . SVG Version: 6.00 Build 0)  -->
<svg version="1.1" id="Layer_1" xmlns="http://www.w3.org/2000/svg" xmlns:xlink="http://www.w3.org/1999/xlink" x="0px" y="0px"
	 width="110px" height="164px" viewBox="0 0 110 164" enable-background="new 0 0 110 164" xml:space="preserve">
<g transform="translate(0,-952.36218)">
	<g transform="translate(-1042,1553)">
		<path fill="#ffffff" d="M1086.344-568.315c-6.849,0-12.419,5.57-12.419,12.419v56.275l-3.715-7.429c-2.129-4.167-5.684-8.412-9.647-9.481
			c-3.345-0.922-6.408,0.269-8.815,1.663c-3.052,1.792-5.046,4.346-5.822,6.93c-0.887,3.622-0.142,7.271,1.497,11.255
			c8.109,19.91,20.514,43.568,34.042,59.047c0.33,0.38,0.828,0.608,1.331,0.61h47.902c0.381-0.012,0.756-0.15,1.053-0.388
			c4.658-3.451,8.685-9.669,12.031-17.187c3.346-7.519,6.035-16.296,7.263-24.839c1.275-8.87,1.411-16.804-0.444-23.342
			c-1.855-6.538-6.006-11.538-12.586-12.308c-2.298-0.02-4.298,0.141-6.099,1.164c-0.611-2.716-1.854-4.968-3.604-6.21
			c-2.268-1.609-4.779-2.081-6.542-2.051c-2.451,0.041-4.428,1.347-6.154,3.16c-0.719-1.958-1.717-3.594-3.105-4.602
			c-2.231-1.62-4.771-2.107-6.653-2.107c-2.494,0-5.007,0.942-7.097,2.495v-32.656
			C1098.608-563.957,1092.111-568.361,1086.344-568.315z M1086.344-564.767c4.945,0,8.871,3.926,8.871,8.871v37.258
			c0.018,0.795,0.627,1.54,1.404,1.706c0.778,0.166,1.641-0.265,1.978-0.985c1.163-2.417,4.607-4.269,7.263-4.269
			c1.201,0,3.113,0.345,4.546,1.386c1.433,1.041,2.55,2.645,2.55,5.711c-0.018,0.804,0.593,1.575,1.377,1.755
			c0.784,0.18,1.665-0.25,2.005-0.979c1.608-3.217,3.12-4.284,5.544-4.325c0.915-0.016,2.882,0.323,4.38,1.386
			c1.498,1.063,2.661,2.678,2.661,5.711c0.018,1.373,1.997,2.219,2.994,1.275c0.344-0.319,1.289-0.766,2.439-0.998
			c1.15-0.232,2.464-0.277,3.437-0.277c4.916,0.672,7.767,4.054,9.37,9.703c1.629,5.741,1.653,13.645,0.388,21.845
			c-1.265,8.2-3.783,16.755-6.986,23.952c-3.12,7.012-6.972,12.603-10.645,15.469h-46.239
			c-12.878-14.954-25.026-38.026-32.933-57.44c-1.682-4.329-1.969-7.096-1.442-8.982c0.895-2.475,2.576-3.913,4.325-4.879
			c1.99-1.135,3.951-1.781,5.988-1.22c4.152,2.016,5.667,4.542,7.429,7.707l7.041,14.138c0.34,0.729,1.221,1.159,2.005,0.979
			s1.389-0.951,1.377-1.755v-63.871C1077.473-560.841,1081.398-564.767,1086.344-564.767z"/>
		<path fill="#ffffff" d="M1058.467-599.742l-15.968,15.969c-0.248,0.239-0.5,0.655-0.499,1.275c0.021,0.583,0.064,0.855,0.499,1.275l15.968,15.969
			c0.73,0.702,1.897,0.612,2.551-0.055c0.653-0.668,0.613-1.842-0.055-2.495l-12.918-12.919c25.541,0,51.082,0,76.623,0
			l-12.918,12.919c-0.668,0.653-0.708,1.827-0.055,2.495s1.821,0.758,2.551,0.055l15.968-15.969c0.435-0.42,0.479-0.692,0.499-1.275
			c0.001-0.62-0.252-1.036-0.499-1.275l-15.968-15.969c-0.702-0.688-1.897-0.668-2.551,0c-0.653,0.668-0.613,1.897,0.055,2.55
			l12.918,12.919c-25.541,0-51.082,0-76.623,0l12.918-12.919c0.668-0.653,0.709-1.883,0.055-2.55
			C1060.175-600.503,1059.151-600.309,1058.467-599.742z"/>
	</g>
</g>
</svg>
