<?xml version="1.0" encoding="utf-8"?>
<!-- Generator: Adobe Illustrator 23.1.0, SVG Export Plug-In . SVG Version: 6.00 Build 0)  -->
<svg version="1.1" id="Lag_1" xmlns="http://www.w3.org/2000/svg" xmlns:xlink="http://www.w3.org/1999/xlink" x="0px" y="0px"
	 width="72px" height="48px" viewBox="0 0 72 48" enable-background="new 0 0 72 48" xml:space="preserve">
<g>
	
		<rect x="9" y="31" fill="none" stroke="#000000" stroke-width="1.8" stroke-linecap="round" stroke-linejoin="round" stroke-miterlimit="10" width="54" height="16.1"/>
	
		<line fill="none" stroke="#000000" stroke-width="1.8" stroke-linecap="round" stroke-miterlimit="10" x1="12" y1="31" x2="12" y2="36.5"/>
	
		<line fill="none" stroke="#000000" stroke-width="1.8" stroke-linecap="round" stroke-miterlimit="10" x1="16" y1="31" x2="16" y2="34.5"/>
	
		<line fill="none" stroke="#000000" stroke-width="1.8" stroke-linecap="round" stroke-miterlimit="10" x1="20" y1="31" x2="20" y2="34.5"/>
	
		<line fill="none" stroke="#000000" stroke-width="1.8" stroke-linecap="round" stroke-miterlimit="10" x1="24" y1="31" x2="24" y2="34.5"/>
	
		<line fill="none" stroke="#000000" stroke-width="1.8" stroke-linecap="round" stroke-miterlimit="10" x1="28" y1="31" x2="28" y2="36.5"/>
	
		<line fill="none" stroke="#000000" stroke-width="1.8" stroke-linecap="round" stroke-miterlimit="10" x1="32" y1="31" x2="32" y2="34.5"/>
	
		<line fill="none" stroke="#000000" stroke-width="1.8" stroke-linecap="round" stroke-miterlimit="10" x1="36" y1="31" x2="36" y2="34.5"/>
	
		<line fill="none" stroke="#000000" stroke-width="1.8" stroke-linecap="round" stroke-miterlimit="10" x1="40" y1="31" x2="40" y2="34.5"/>
	
		<line fill="none" stroke="#000000" stroke-width="1.8" stroke-linecap="round" stroke-miterlimit="10" x1="44" y1="31" x2="44" y2="36.5"/>
	
		<line fill="none" stroke="#000000" stroke-width="1.8" stroke-linecap="round" stroke-miterlimit="10" x1="48" y1="31" x2="48" y2="34.5"/>
	
		<line fill="none" stroke="#000000" stroke-width="1.8" stroke-linecap="round" stroke-miterlimit="10" x1="52" y1="31" x2="52" y2="34.5"/>
	
		<line fill="none" stroke="#000000" stroke-width="1.8" stroke-linecap="round" stroke-miterlimit="10" x1="56" y1="31" x2="56" y2="34.5"/>
	
		<line fill="none" stroke="#000000" stroke-width="1.8" stroke-linecap="round" stroke-miterlimit="10" x1="60" y1="31" x2="60" y2="36.5"/>
</g>
<g>
	
		<line fill="none" stroke="#000000" stroke-width="1.8" stroke-linecap="round" stroke-miterlimit="10" x1="9" y1="21" x2="9" y2="25"/>
	
		<line fill="none" stroke="#000000" stroke-width="1.8" stroke-linecap="round" stroke-miterlimit="10" x1="9" y1="23" x2="63" y2="23"/>
	
		<line fill="none" stroke="#000000" stroke-width="1.8" stroke-linecap="round" stroke-miterlimit="10" x1="63" y1="21" x2="63" y2="25"/>
</g>
</svg>
