<?xml version="1.0" encoding="utf-8"?>
<!-- Generator: Adobe Illustrator 23.1.0, SVG Export Plug-In . SVG Version: 6.00 Build 0)  -->
<svg version="1.1" id="Lag_1" xmlns="http://www.w3.org/2000/svg" xmlns:xlink="http://www.w3.org/1999/xlink" x="0px" y="0px"
	 width="72px" height="48px" viewBox="0 0 72 48" enable-background="new 0 0 72 48" xml:space="preserve">
<g>
	<path fill="none" stroke="#000000" stroke-width="1.8" stroke-linecap="round" stroke-linejoin="round" d="M41.342,36.1h16.5
		c0.5,0,0.9-0.4,0.8-0.9c-0.4-5.8-5.3-10.3-11.2-10.3h-0.1c0-5.8-4.7-10.5-10.5-10.5c-1,0-2,0.1-2.9,0.4"/>
	<path fill="none" stroke="#000000" stroke-width="1.8" stroke-linecap="round" stroke-linejoin="round" d="M23.342,25.3
		c-4.4,1.3-7.7,5.2-8.1,9.9c0,0.5,0.4,0.9,0.8,0.9h13.9"/>
	<g>
		<path fill="none" stroke="#000000" stroke-width="1.8" stroke-linecap="round" stroke-linejoin="round" d="M29.942,47.1
			c0-3.7-3.7-6.7-8.2-6.7"/>
		<path fill="none" stroke="#000000" stroke-width="1.8" stroke-linecap="round" stroke-linejoin="round" d="M29.942,47.1
			c0-3.7,3.7-6.7,8.2-6.7"/>
	</g>
	<g>
		<path fill="none" stroke="#000000" stroke-width="1.8" stroke-linecap="round" stroke-linejoin="round" d="M35.242,33.5
			c0-3.1-3.1-5.6-6.9-5.6"/>
		<path fill="none" stroke="#000000" stroke-width="1.8" stroke-linecap="round" stroke-linejoin="round" d="M35.242,33.5
			c0-3.1,3.1-5.6,6.9-5.6"/>
	</g>
	<g>
		<path fill="none" stroke="#000000" stroke-width="1.8" stroke-linecap="round" stroke-linejoin="round" d="M26.142,22.6
			c0-2.5-2.5-4.5-5.5-4.5"/>
		<path fill="none" stroke="#000000" stroke-width="1.8" stroke-linecap="round" stroke-linejoin="round" d="M26.142,22.6
			c0-2.5,2.5-4.5,5.5-4.5"/>
	</g>
	<g>
		<path fill="none" stroke="#000000" stroke-width="1.8" stroke-linecap="round" stroke-linejoin="round" d="M18.142,15
			c0-2.2-2.2-3.9-4.8-3.9"/>
		<path fill="none" stroke="#000000" stroke-width="1.8" stroke-linecap="round" stroke-linejoin="round" d="M18.142,15
			c0-2.2,2.2-3.9,4.8-3.9"/>
	</g>
</g>
</svg>
