<?xml version="1.0" encoding="utf-8"?>
<!-- Generator: Adobe Illustrator 23.1.0, SVG Export Plug-In . SVG Version: 6.00 Build 0)  -->
<svg version="1.1" id="Lag_1" xmlns="http://www.w3.org/2000/svg" xmlns:xlink="http://www.w3.org/1999/xlink" x="0px" y="0px"
	 width="72px" height="48px" viewBox="0 0 72 48" enable-background="new 0 0 72 48" xml:space="preserve">
<g id="Group_196" transform="translate(-1221 -759.903)">
	<g enable-background="new    ">
		<path d="M1256.3,796.8h-1.5l-1.7-2.7l-0.6,0.4v2.3h-1.4v-6.4h1.4v2.9l0.5-0.8l1.7-2.2h1.5l-2.2,2.8L1256.3,796.8z"/>
		<path d="M1259.6,793.2h2.5v3.3c-0.4,0.1-0.8,0.2-1.2,0.3c-0.4,0.1-0.7,0.1-1.1,0.1c-1,0-1.7-0.3-2.2-0.9c-0.5-0.6-0.8-1.4-0.8-2.5
			c0-1,0.3-1.8,0.9-2.4c0.6-0.6,1.4-0.9,2.5-0.9c0.7,0,1.3,0.1,1.9,0.4l-0.5,1.1c-0.5-0.2-1-0.4-1.5-0.4c-0.6,0-1.1,0.2-1.4,0.6
			c-0.4,0.4-0.5,0.9-0.5,1.6c0,0.7,0.1,1.2,0.4,1.6c0.3,0.4,0.7,0.6,1.2,0.6c0.3,0,0.6,0,0.9-0.1v-1.3h-1.2v-1.1H1259.6z"/>
	</g>
	<g id="Group_192" transform="translate(1221 759.904)">
		<path id="Path_82" d="M53.5,41.7c-0.5-2.3-1.1-4.6-1.6-6.9c-0.9-3.7-1.8-7.6-2.7-11.4c-0.9-3.5-3.9-6-7.5-6.1c-0.1,0-0.2,0-0.3,0
			h-0.2c0.8-1,1.4-2.3,1.5-3.6c0.3-3.7-2.4-6.9-6.1-7.2c-2.1-0.2-4.2,0.7-5.6,2.3c-2.1,2.4-2.1,6.1-0.1,8.5h-0.5
			c-3.6,0-6.7,2.5-7.5,6c-1.3,5.3-2.6,11.1-4.4,18.4c-0.3,1.1-0.2,2.4,0.3,3.5c0.8,1.8,2.7,2.9,4.7,2.8c0.9,0,1.8,0,3,0
			c0.7,0,1.3,0,2,0s1.3,0,2,0l0,0h5.1c4.3,0,8.6,0,13,0c2.7,0.2,5-1.9,5.1-4.5C53.7,42.9,53.7,42.3,53.5,41.7L53.5,41.7z M32.3,10
			c1.8-2.1,4.9-2.3,6.9-0.5c0.1,0.1,0.1,0.1,0.2,0.2c1,1,1.6,2.5,1.5,3.9c-0.1,1.5-1,2.9-2.3,3.8h-5.1c-1.2-0.8-2.1-2.1-2.3-3.6
			C31,12.4,31.4,11,32.3,10z M51.3,45c-0.7,0.8-1.7,1.2-2.7,1.1c-4.3,0-8.6,0-13,0h-5.1l0,0c-0.7,0-1.3,0-2,0s-1.3,0-2,0
			c-1.2,0-2.1,0-3,0c-1.3,0.1-2.5-0.6-3.1-1.8c-0.3-0.7-0.4-1.5-0.1-2.3c1.7-7.2,3.1-13.1,4.4-18.4c0.6-2.7,3-4.6,5.8-4.6
			c0.3,0,0.7,0,1,0h0.9h1h5.7c0.3,0,0.5,0,0.8,0s0.5,0,0.8,0c0.4,0,0.7,0,1,0c0.1,0,0.2,0,0.3,0c2.7,0.1,5.1,2,5.7,4.7
			c0.9,3.8,1.8,7.7,2.7,11.4c0.5,2.3,1.1,4.6,1.6,6.9C52,43.1,51.9,44.2,51.3,45L51.3,45z"/>
		<path id="Path_83" d="M36,16.6L36,16.6c0.9,0,1.8-0.4,2.5-1c0.7-0.7,1-1.5,1-2.5c0-1.9-1.6-3.4-3.5-3.4l0,0
			c-1.9,0-3.5,1.6-3.5,3.5S34.1,16.6,36,16.6L36,16.6L36,16.6z M36,11.5L36,11.5c0.9,0,1.7,0.7,1.7,1.6c0,0.4-0.2,0.9-0.5,1.2
			s-0.8,0.5-1.2,0.5c-0.9,0-1.7-0.7-1.7-1.7C34.3,12.2,35.1,11.5,36,11.5L36,11.5z"/>
	</g>
</g>
</svg>
