<?xml version="1.0" encoding="utf-8"?>
<!-- Generator: Adobe Illustrator 23.1.0, SVG Export Plug-In . SVG Version: 6.00 Build 0)  -->
<svg version="1.1" id="Lag_1" xmlns="http://www.w3.org/2000/svg" xmlns:xlink="http://www.w3.org/1999/xlink" x="0px" y="0px"
	 width="72px" height="48px" viewBox="0 0 72 48" enable-background="new 0 0 72 48" xml:space="preserve">
<circle fill="none" stroke="#000000" stroke-width="1.8" stroke-miterlimit="10" cx="36.9" cy="30.9" r="7.9"/>
<circle fill="none" stroke="#000000" stroke-width="1.8" stroke-miterlimit="10" cx="36.9" cy="30.9" r="12"/>
<path fill="none" stroke="#000000" stroke-width="1.8" stroke-linecap="round" stroke-miterlimit="10" d="M15.1,11.5v10.6
	c0,0-0.2,2.1,2.1,4.4c0,0,0.2,9.1-0.4,18.6c-0.1,1,0.7,1.9,1.7,2l0,0"/>
<path fill="none" stroke="#000000" stroke-width="1.8" stroke-linecap="round" stroke-miterlimit="10" d="M21.9,11.5v10.6
	c0,0,0.2,2.1-2.1,4.4c0,0-0.2,9.1,0.4,18.6c0.1,1-0.7,1.9-1.7,2l0,0"/>
<line fill="none" stroke="#000000" stroke-width="1.8" stroke-linecap="round" stroke-miterlimit="10" x1="17.3" y1="20.4" x2="17.3" y2="11.5"/>
<line fill="none" stroke="#000000" stroke-width="1.8" stroke-linecap="round" stroke-miterlimit="10" x1="19.6" y1="20.4" x2="19.6" y2="11.5"/>
<path fill="none" stroke="#000000" stroke-width="1.8" stroke-miterlimit="10" d="M56.9,45.8V11.7c0-0.2-0.2-0.3-0.4-0.2
	C55.1,12.3,51,16,54.3,33v12.8c0,0.7,0.6,1.3,1.3,1.3l0,0C56.3,47.1,56.9,46.5,56.9,45.8z"/>
</svg>
