<?xml version="1.0" encoding="utf-8"?>
<!-- Generator: Adobe Illustrator 23.1.0, SVG Export Plug-In . SVG Version: 6.00 Build 0)  -->
<svg version="1.1" id="Lag_1" xmlns="http://www.w3.org/2000/svg" xmlns:xlink="http://www.w3.org/1999/xlink" x="0px" y="0px"
	 width="72px" height="48px" viewBox="0 0 72 48" enable-background="new 0 0 72 48" xml:space="preserve">
<path id="Path_52" d="M45.781,29.882c-2.972,0-4.68-1.743-6.19-3.281c-1.172-1.2-2.185-2.228-3.591-2.228
	c-1.385,0-2.39,1.025-3.553,2.211c-1.513,1.545-3.228,3.3-6.229,3.3c-2.971,0-4.68-1.743-6.19-3.281
	c-1.171-1.2-2.185-2.233-3.59-2.233v-1.84c2.178,0,3.564,1.413,4.9,2.779c1.376,1.4,2.678,2.73,4.875,2.73
	c2.227,0,3.533-1.333,4.915-2.745c1.33-1.36,2.707-2.765,4.867-2.765c2.178,0,3.564,1.413,4.9,2.779
	c1.377,1.4,2.678,2.73,4.876,2.73c2.227,0,3.533-1.333,4.915-2.745c1.332-1.36,2.706-2.765,4.867-2.765v1.84
	c-1.385,0-2.391,1.025-3.551,2.211C50.495,28.128,48.782,29.882,45.781,29.882z"/>
<g>
	
		<line fill="none" stroke="#000000" stroke-width="1.8" stroke-linecap="round" stroke-miterlimit="10" x1="36" y1="30.5" x2="36" y2="47.1"/>
	
		<polyline fill="none" stroke="#000000" stroke-width="1.8" stroke-linecap="round" stroke-linejoin="round" stroke-miterlimit="10" points="
		43,40.1 36,47.1 29,40.1 	"/>
</g>
</svg>
