<?xml version="1.0" encoding="utf-8"?>
<!-- Generator: Adobe Illustrator 22.1.0, SVG Export Plug-In . SVG Version: 6.00 Build 0)  -->
<svg version="1.1" id="Layer_1" xmlns="http://www.w3.org/2000/svg" xmlns:xlink="http://www.w3.org/1999/xlink" x="0px" y="0px"
	 width="36px" height="36px" viewBox="0 0 36 36" enable-background="new 0 0 36 36" xml:space="preserve">
<g transform="translate(0,-952.36218)">
	<path fill="#ffffff" d="M18,952.362c-9.931,0-18,8.069-18,18c0,9.755,7.791,17.707,17.479,17.986c0.171,0.017,0.347,0.014,0.521,0.014
		s0.351,0.004,0.521-0.014C28.209,988.069,36,980.117,36,970.362C36,960.431,27.931,952.362,18,952.362z M17.122,954.242v6.462
		h-5.062c0.255-0.731,0.531-1.431,0.837-2.058C14.1,956.175,15.595,954.663,17.122,954.242z M18.878,954.242
		c1.527,0.421,3.022,1.933,4.226,4.404c0.306,0.627,0.581,1.327,0.837,2.058h-5.062V954.242z M13.294,954.818
		c-0.746,0.854-1.405,1.888-1.976,3.059c-0.421,0.864-0.799,1.816-1.125,2.826H4.939C6.992,957.933,9.911,955.839,13.294,954.818z
		 M22.706,954.818c3.383,1.021,6.302,3.115,8.355,5.886h-5.255c-0.326-1.01-0.704-1.962-1.125-2.826
		C24.111,956.706,23.451,955.672,22.706,954.818z M3.814,962.46H9.7c-0.528,2.138-0.845,4.514-0.905,7.024H1.784
		C1.919,966.938,2.642,964.56,3.814,962.46z M11.524,962.46h5.598v7.024h-6.558C10.63,966.943,10.971,964.555,11.524,962.46z
		 M18.878,962.46h5.598c0.553,2.095,0.895,4.484,0.96,7.024h-6.558V962.46z M26.3,962.46h5.886c1.172,2.101,1.895,4.478,2.03,7.024
		h-7.011C27.145,966.973,26.829,964.598,26.3,962.46z M1.784,971.24h7.011c0.06,2.509,0.379,4.883,0.905,7.024H3.8
		C2.633,976.167,1.918,973.78,1.784,971.24z M10.564,971.24h6.558v7.024h-5.611C10.959,976.168,10.629,973.778,10.564,971.24z
		 M18.878,971.24h6.558c-0.065,2.538-0.395,4.928-0.947,7.024h-5.611V971.24z M27.206,971.24h7.011
		c-0.135,2.54-0.85,4.927-2.017,7.024H26.3C26.827,976.123,27.146,973.75,27.206,971.24z M4.925,980.02h5.255
		c0.328,1.023,0.714,1.968,1.139,2.84c0.566,1.161,1.224,2.198,1.962,3.046C9.898,984.882,6.976,982.795,4.925,980.02z
		 M12.046,980.02h5.076v6.462c-1.526-0.419-3.022-1.92-4.226-4.39C12.587,981.457,12.304,980.763,12.046,980.02z M18.878,980.02
		h5.076c-0.258,0.743-0.541,1.436-0.851,2.072c-1.203,2.47-2.7,3.972-4.226,4.39V980.02z M25.82,980.02h5.255
		c-2.05,2.774-4.973,4.861-8.355,5.886c0.738-0.848,1.396-1.885,1.962-3.046C25.106,981.988,25.492,981.043,25.82,980.02z"/>
</g>
</svg>
