<?xml version="1.0" encoding="utf-8"?>
<!-- Generator: Adobe Illustrator 23.1.0, SVG Export Plug-In . SVG Version: 6.00 Build 0)  -->
<svg version="1.1" id="Lag_1" xmlns="http://www.w3.org/2000/svg" xmlns:xlink="http://www.w3.org/1999/xlink" x="0px" y="0px"
	 width="72px" height="48px" viewBox="0 0 72 48" style="enable-background:new 0 0 72 48;" xml:space="preserve">
<path id="Path_56" d="M35.2,32.2c-1.5,0-2.6,1.2-2.6,2.6s1.2,2.6,2.6,2.6s2.6-1.2,2.6-2.6C37.8,33.4,36.7,32.2,35.2,32.2z
	 M35.2,36.4c-0.8,0-1.5-0.7-1.5-1.5c0-0.8,0.7-1.5,1.5-1.5c0.8,0,1.5,0.7,1.5,1.5v0C36.7,35.7,36,36.4,35.2,36.4z"/>
<path id="Path_58" d="M17.6,27.5c-0.9-1.8-2-3.4-3.4-4.8c-0.7-0.7-1.7-0.6-2.4,0c-0.3,0.3-0.5,0.7-0.5,1.2v21.5
	c0,0.9,0.8,1.7,1.7,1.7c0.4,0,0.9-0.2,1.2-0.5c1.4-1.4,2.6-3,3.5-4.9c0.7,0.8,1.7,1.2,2.8,1.2c-0.2,0.1-0.3,0.1-0.5,0.2
	c-2,1.4,0.5,4.8,3.9,4.8c1.8,0,2.7-0.8,4.7-2.1c0.1,0,0.2-0.1,0.2-0.1c7,0.2,13.5-3.6,16.8-9.8c0.4-0.8,0.4-1.7,0-2.4
	C40.8,23.2,26.8,20.1,17.6,27.5z M44.6,35.5c-3,5.8-9.1,9.4-15.7,9.2c-0.3,0-0.6,0.1-0.9,0.2l-1.9,1.2c-3.3,2.1-6.6-1.3-5.5-2.1
	c0.2-0.1,3.2-0.8,3.4-0.8c0.4-0.1,0.6-0.5,0.5-0.9c-0.1-0.3-0.4-0.6-0.7-0.6h-3.6c-0.9-0.1-1.6-0.5-2.2-1.1
	c-0.3-0.3-0.9-0.3-1.2,0.1c-0.1,0.1-0.1,0.1-0.1,0.2c-0.8,1.8-2,3.5-3.4,4.9c-0.2,0.2-0.6,0.2-0.8,0c-0.1-0.1-0.2-0.2-0.2-0.4V23.9
	c0-0.3,0.3-0.6,0.6-0.6c0.1,0,0.3,0.1,0.4,0.2c1.4,1.4,2.5,3,3.4,4.8c0.2,0.4,0.7,0.6,1.1,0.4c0.1,0,0.1-0.1,0.2-0.1
	c8.6-7.2,21.9-4.3,26.6,5.5C44.8,34.5,44.8,35.1,44.6,35.5z"/>
<path id="Path_59" d="M60.7,22.2c0-1.9-1.5-3.4-3.4-3.4c-1.9,0-3.4,1.5-3.4,3.4c0,1.6,1.2,3,2.8,3.3v15.8c0,2.3-1.9,4.2-4.2,4.2
	c-2.3,0-4.2-1.9-4.2-4.2c0,0,0-0.1,0-0.1v-0.5h3.4c0.3,0,0.6-0.3,0.6-0.6c0-0.1-0.1-0.3-0.2-0.4l-4-4.2c-0.2-0.2-0.6-0.2-0.8,0
	c-0.1,0.1-0.2,0.3-0.2,0.4v5.3c0,2.9,2.3,5.4,5.3,5.4c2.9,0,5.4-2.3,5.4-5.3c0,0,0-0.1,0-0.1V25.5C59.5,25.2,60.7,23.8,60.7,22.2z
	 M48.3,39.6v-2.2l2.1,2.2H48.3z M57.3,24.4c-1.2,0-2.2-1-2.2-2.2s1-2.2,2.2-2.2s2.2,1,2.2,2.2C59.6,23.4,58.6,24.4,57.3,24.4z"/>
</svg>
