<?xml version="1.0" encoding="utf-8"?>
<!-- Generator: Adobe Illustrator 23.0.3, SVG Export Plug-In . SVG Version: 6.00 Build 0)  -->
<svg version="1.1" id="Lag_1" xmlns="http://www.w3.org/2000/svg" xmlns:xlink="http://www.w3.org/1999/xlink" x="0px" y="0px"
	 width="250px" height="44px" viewBox="0 0 250 44" enable-background="new 0 0 250 44" xml:space="preserve">
<path fill="#FFFFFF" d="M0,0.259v9.616c0.103-0.061,0.206-0.122,0.318-0.183c0.637-0.305,1.294-0.568,1.966-0.786
	c2.052-2.989,5.034-5.216,8.483-6.334l0.066-0.042c0.294-0.092,0.615-0.046,0.871,0.126c0.037,0.051,0.089,0.098,0.094,0.164
	s-0.042,0.225-0.108,0.304C10.632,4.371,9.675,5.7,8.829,7.099C8.781,7.184,8.741,7.273,8.707,7.366
	c-0.544,0.932-1.014,1.906-1.404,2.912c-0.119,0.298-0.139,0.626-0.056,0.936c0.106,0.438,0.247,0.867,0.421,1.283
	c0.356,0.885,0.758,1.671,1.227,2.495c0.248,0.524,0.632,1.016,0.885,1.564c0.131,0.253,0.22,0.641-0.154,0.754
	c-0.49,0.171-1.022,0.171-1.512,0c-1.624-0.732-3.181-1.604-4.653-2.608c-0.164-0.103-0.34-0.187-0.524-0.248
	c-0.153-0.042-0.31-0.066-0.468-0.07c-0.187,0-0.36,0-0.548-0.023c-0.299-0.023-0.599,0.037-0.866,0.173
	C0.623,14.738,0.259,15.059,0,15.46v3.333c0.415,0.803,1.069,1.457,1.873,1.873c0.833,0.474,1.754,0.773,2.706,0.88
	c1.587,0.173,3.066,0.229,4.625,0.248c1.543,0.029,3.087-0.019,4.625-0.145c1.095-0.094,2.186-0.173,3.277-0.314
	c0.871-0.088,1.746-0.13,2.622-0.126c2.92-0.031,5.806,0.625,8.426,1.915c0.786,0.397,1.546,0.844,2.275,1.339
	c1.489,1.035,2.977,1.943,4.101,3.249c0.051,0.037,0.056,0.103,0.075,0.178c0.094,0.154,0,0.3-0.08,0.468
	c-0.196,0.187-0.406,0.359-0.627,0.515l0.07,0.075c0.365,0.098,0.604,0.36,0.375,0.623c-0.11,0.096-0.242,0.165-0.384,0.201
	c-0.843,0.29-1.657,0.548-2.533,0.829c-1.03,0.309-2.013,0.595-3.099,0.838c-0.936,0.211-1.84,0.412-2.743,0.585l-0.379-0.211
	c-0.913-0.529-2.509-1.512-4.606-2.57c-2.054-0.895-4.207-1.542-6.414-1.929c-0.314-0.003-0.599-0.185-0.735-0.468
	c-0.159-0.257-2.266-2.43-2.593-2.743c-0.328-0.314-0.468-0.117-0.524,0.178c-0.052,0.243-0.12,0.482-0.201,0.716
	c0,0-0.609,1.788-0.702,1.933c-0.094,0.145-0.164,0.365-0.403,0.356c-0.167,0.012-0.335-0.012-0.492-0.07
	c-0.122-0.116-0.232-0.245-0.328-0.384c-0.233-0.243-0.483-0.468-0.749-0.674c-0.32-0.295-0.623-0.607-0.908-0.936
	c-0.351-0.389-0.763-0.257-0.997-0.314c-0.234-0.056-0.566,0.201-0.875,0.36c-0.309,0.159-0.96,0.384-1.273,0.595
	C3.165,25.993,1.081,27.084,0,27.631v1.765c0.936-0.478,3.413-1.765,3.67-1.938c0.257-0.173,0.964-0.435,1.269-0.595
	c0.304-0.159,0.641-0.421,0.875-0.36c0.234,0.061,0.646-0.075,0.997,0.314c0.286,0.328,0.589,0.641,0.908,0.936
	c0.266,0.206,0.516,0.432,0.749,0.674c0.096,0.14,0.206,0.271,0.328,0.389c0.15,0.055,0.309,0.079,0.468,0.07
	c0.234,0,0.309-0.211,0.403-0.356c0.094-0.145,0.702-1.938,0.702-1.938c0.081-0.234,0.149-0.474,0.201-0.716
	c0.056-0.295,0.192-0.468,0.524-0.178c0.332,0.29,2.434,2.486,2.598,2.743c0.136,0.283,0.421,0.465,0.735,0.468
	c2.207,0.387,4.36,1.034,6.414,1.929c2.107,1.058,3.703,2.041,4.606,2.551c0.672,0.323,1.322,0.689,1.947,1.095
	c0.257,0.304-0.496,0.796-0.847,1.006c0,0,1.727-0.169,1.404,0.262s-1.404,1.264-4.475,2.205s-3.343,0.936-3.745,1.044
	c-0.178,0.047-0.309,0.183-0.501,0.431c-0.136,0.174-0.283,0.34-0.44,0.496c-0.136,0.15-0.332,0.332-0.468,0.468
	c-0.136,0.136-0.159,0.117-0.693,0.506c-0.192,0.144-0.446,0.172-0.665,0.075c-0.201-0.059-0.316-0.27-0.257-0.471
	c0.008-0.027,0.019-0.053,0.032-0.077c0.178-0.328,0.197-0.356,0.276-0.501c0.069-0.125,0.132-0.253,0.187-0.384
	c0-0.028-5.664,0.183-7.659-0.028c0,0-0.239-0.103-0.637,0.159s-2.27,1.344-2.631,1.531s-0.899,0.655-1.718,0.173
	s-2.743-2.341-3.464-2.865L0,37.72v6.086h47.797V0.259H0z M26.515,17.58c-0.438,0.114-0.884,0.193-1.334,0.239
	c-0.797,0.052-1.596,0.052-2.392,0l-0.276,0.304c-0.056,0.061-0.098,0.066-0.112,0.042c-0.025-0.06-0.041-0.123-0.047-0.187
	c-0.012-0.067-0.012-0.135,0-0.201c-0.14,0-0.234-0.037-0.548-0.098c-0.314-0.061-0.683-0.159-0.712-0.159
	c-0.028,0-0.332,0.239-0.398,0.253c-0.287-0.089-0.567-0.198-0.838-0.328c-0.056-0.023,0.08-0.103,0.08-0.103
	c-0.217-0.045-0.438-0.069-0.66-0.07c-0.064-0.021-0.133-0.021-0.197,0c-0.117,0.042-1.404,0.295-1.568,0.314
	s-0.201-0.033-0.103-0.159c0.274-0.223,0.563-0.426,0.866-0.609c-0.334-0.212-0.624-0.487-0.852-0.81
	c-0.07-0.07,0-0.084,0.056-0.075c0.056,0.009,0.426,0.098,0.585,0.154c0.159,0.056,0.683,0.314,0.843,0.389
	c0.11,0.061,0.231,0.099,0.356,0.112c0.149-0.018,0.296-0.046,0.44-0.084l1.297-0.267l0.81-0.169c0.08,0,0.061,0,0-0.028
	l-0.112-0.089c0.016-0.047,0.043-0.088,0.08-0.122c0.064-0.053,0.133-0.1,0.206-0.14c0.129-0.086,0.246-0.19,0.346-0.309
	c0.047-0.061,0.023-0.094,0.056-0.089c0.044,0.014,0.086,0.036,0.122,0.066l0.122,0.066c0.037,0,0.468,0.337,0.595,0.403
	c0.126,0.066,0.089,0.075,0.178,0.07s0.894,0,1.255,0c0.485,0.034,0.966,0.101,1.442,0.201c0.234,0.056,1.119,0.365,1.184,0.393
	c0.079,0.019,0.155,0.051,0.225,0.094c0.015,0.029,0.015,0.064,0,0.094l0.075,0.028c0,0,0.028,0.07-0.051,0.192
	c-0.13,0.159-0.276,0.305-0.435,0.435c-0.182,0.107-0.377,0.188-0.58,0.243L26.515,17.58z M32.433,20.9
	c-0.051,0.066-0.089,0.075-0.108,0.051c-0.03-0.059-0.051-0.122-0.061-0.187c-0.013-0.066-0.013-0.135,0-0.201
	c-0.14,0-0.234,0-0.557-0.056c-0.323-0.056-0.693-0.108-0.721-0.108s-0.314,0.262-0.379,0.281c-0.292-0.068-0.578-0.157-0.857-0.267
	c-0.056,0,0.07-0.108,0.07-0.108c-0.221-0.022-0.444-0.022-0.665,0c-0.065-0.011-0.132-0.001-0.192,0.028
	c-0.117,0.051-1.358,0.393-1.545,0.421c-0.187,0.028-0.201,0-0.117-0.15c0.261-0.252,0.539-0.485,0.833-0.698
	c-0.348-0.187-0.657-0.44-0.908-0.744c-0.075-0.066,0-0.084,0.051-0.08c0.051,0.005,0.431,0.07,0.595,0.112
	c0.164,0.042,0.702,0.262,0.871,0.328c0.113,0.053,0.236,0.084,0.36,0.089c0.146-0.03,0.29-0.069,0.431-0.117l1.273-0.36
	l0.796-0.225c0.08,0,0.061,0,0-0.033l-0.122-0.08c0.014-0.048,0.04-0.091,0.075-0.126c0.061-0.057,0.127-0.109,0.197-0.154
	c0.123-0.095,0.231-0.207,0.323-0.332c0.042-0.066,0-0.094,0.051-0.094c0.045,0.011,0.088,0.03,0.126,0.056l0.126,0.056
	c0.042,0,0.501,0.3,0.623,0.36c0.122,0.061,0.094,0.066,0.183,0.056c0.089-0.009,0.894-0.047,1.25-0.07
	c0.487-0.002,0.973,0.029,1.456,0.094c0.234,0.037,1.142,0.286,1.212,0.309c0.08,0.013,0.157,0.038,0.229,0.075
	c0.025,0.024,0.035,0.06,0.028,0.094h0.08c0.023,0,0.033,0.07-0.037,0.197c-0.118,0.169-0.253,0.326-0.403,0.468
	c-0.197,0.113-0.41,0.197-0.632,0.248c-0.429,0.146-0.869,0.258-1.315,0.337c-0.791,0.114-1.588,0.176-2.388,0.187L32.433,20.9z
	 M42.437,24.069c-0.123,0.148-0.261,0.283-0.412,0.403c-0.191,0.09-0.395,0.152-0.604,0.183c-0.409,0.104-0.825,0.176-1.245,0.215
	c-0.742,0.048-1.486,0.048-2.228,0L37.69,25.15c-0.051,0.056-0.089,0.061-0.103,0.042c-0.023-0.057-0.038-0.117-0.042-0.178
	c-0.013-0.062-0.013-0.125,0-0.187c-0.131,0-0.215-0.037-0.51-0.094c-0.295-0.056-0.637-0.154-0.665-0.154s-0.314,0.22-0.37,0.234
	c-0.266-0.086-0.526-0.19-0.777-0.314c-0.051,0,0.075-0.094,0.075-0.094c-0.202-0.044-0.407-0.067-0.613-0.07
	c-0.059-0.019-0.123-0.019-0.183,0c-0.112,0.037-1.287,0.262-1.465,0.276s-0.187-0.033-0.094-0.15
	c0.264-0.212,0.542-0.404,0.833-0.576c-0.31-0.2-0.577-0.46-0.786-0.763c-0.061-0.07,0-0.08,0.051-0.07
	c0.051,0.009,0.393,0.098,0.548,0.145c0.154,0.047,0.632,0.295,0.782,0.37c0.101,0.057,0.213,0.093,0.328,0.108
	c0.139-0.015,0.277-0.04,0.412-0.075l1.208-0.239l0.754-0.15c0.075,0,0.056,0,0.023-0.028l-0.112-0.066
	c0.016-0.043,0.041-0.081,0.075-0.112c0.061-0.05,0.127-0.094,0.197-0.131c0.12-0.08,0.229-0.176,0.323-0.286
	c0.047-0.056,0.023-0.084,0.056-0.084c0.041,0.013,0.079,0.034,0.112,0.061l0.117,0.066c0.033,0,0.445,0.318,0.548,0.379
	c0.103,0.061,0.084,0.07,0.164,0.066c0.08-0.005,0.833,0,1.166,0.028c0.452,0.034,0.901,0.1,1.344,0.197
	c0.215,0.051,1.039,0.351,1.1,0.375c0.073,0.018,0.143,0.048,0.206,0.089c0.015,0.028,0.015,0.061,0,0.089l0.07,0.023
	c0,0,0.056,0.075-0.023,0.187V24.069z M43.705,15.834c-0.124,0.146-0.264,0.278-0.417,0.393c-0.194,0.086-0.399,0.142-0.609,0.169
	c-0.411,0.092-0.829,0.153-1.25,0.183c-0.743,0.029-1.488,0.011-2.228-0.056l-0.267,0.272c-0.056,0.056-0.089,0.061-0.103,0.037
	c-0.023-0.057-0.036-0.117-0.037-0.178c-0.003-0.064,0.007-0.127,0.028-0.187c-0.131,0-0.215-0.042-0.506-0.108
	c-0.29-0.066-0.632-0.169-0.66-0.169c-0.028,0-0.318,0.211-0.375,0.22c-0.263-0.091-0.52-0.2-0.768-0.328
	c-0.051-0.023,0.075-0.094,0.075-0.094c-0.201-0.048-0.407-0.076-0.613-0.084c-0.059-0.019-0.123-0.019-0.183,0
	c-0.112,0.037-1.297,0.229-1.47,0.243c-0.173,0.014-0.187-0.033-0.089-0.15c0.26-0.198,0.534-0.378,0.819-0.538
	c-0.23-0.164-0.438-0.358-0.618-0.576c-0.384,0.086-0.773,0.143-1.166,0.169c-0.743,0.028-1.488,0.007-2.228-0.061l-0.267,0.272
	c-0.056,0.056-0.089,0.061-0.108,0.037c-0.021-0.057-0.034-0.117-0.037-0.178c-0.002-0.064,0.007-0.127,0.028-0.187
	c-0.131,0-0.215-0.042-0.51-0.108s-0.632-0.169-0.66-0.169c-0.028,0-0.318,0.215-0.375,0.22c-0.264-0.092-0.52-0.203-0.768-0.332
	c-0.051-0.023,0.075-0.094,0.075-0.094c-0.201-0.047-0.407-0.076-0.613-0.084c-0.059-0.019-0.123-0.019-0.183,0
	c-0.112,0.037-1.297,0.234-1.47,0.243c-0.173,0.009-0.187-0.033-0.089-0.15c0.26-0.199,0.534-0.379,0.819-0.538
	c-0.304-0.206-0.565-0.47-0.768-0.777c-0.061-0.07,0-0.08,0.056-0.07c0.056,0.009,0.393,0.108,0.543,0.159s0.627,0.314,0.772,0.389
	c0.1,0.061,0.212,0.1,0.328,0.117c0.139-0.013,0.276-0.035,0.412-0.066l1.212-0.211l0.758-0.131c0.075,0,0.061,0,0.023-0.028
	l-0.103-0.089c0.016-0.044,0.044-0.082,0.08-0.112c0.061-0.048,0.127-0.09,0.197-0.126c0.123-0.077,0.235-0.17,0.332-0.276
	c0.047-0.056,0.028-0.084,0.056-0.084c0.041,0.015,0.079,0.037,0.112,0.066l0.112,0.066c0.037,0,0.435,0.328,0.538,0.393
	c0.103,0.066,0.084,0.07,0.164,0.07s0.833,0.042,1.166,0.056c0.451,0.045,0.898,0.122,1.339,0.229
	c0.215,0.056,1.03,0.375,1.095,0.403c0.072,0.02,0.14,0.052,0.201,0.094c0.016,0.028,0.016,0.061,0,0.089l0.07,0.028
	c0,0,0.023,0.066-0.056,0.178c-0.126,0.145-0.268,0.277-0.421,0.393c-0.069,0.038-0.143,0.066-0.22,0.084
	c0.173,0.07,0.604,0.304,0.744,0.375c0.1,0.061,0.212,0.101,0.328,0.117c0.139-0.012,0.276-0.034,0.412-0.066l1.236-0.201
	l0.782-0.126c0.075,0,0.056,0,0-0.028l-0.103-0.084c0.016-0.044,0.044-0.082,0.08-0.112c0.061-0.048,0.127-0.091,0.197-0.126
	c0.123-0.076,0.235-0.169,0.332-0.276c0.047-0.056,0.028-0.084,0.056-0.084c0.041,0.015,0.079,0.037,0.112,0.066l0.112,0.066
	c0.037,0,0.435,0.328,0.538,0.393c0.103,0.066,0.084,0.07,0.159,0.07c0.075,0,0.833,0.042,1.166,0.056
	c0.45,0.045,0.895,0.122,1.334,0.229c0.215,0.056,1.03,0.375,1.091,0.403c0.073,0.02,0.143,0.052,0.206,0.094
	c0.014,0.028,0.014,0.061,0,0.089l0.07,0.028c0,0,0.051,0.07-0.033,0.178L43.705,15.834z M64.556,43.988
	c-3.937,0-6.802-1.835-6.802-6.226V35.07c0-4.386,2.865-6.226,6.802-6.226s6.802,1.835,6.802,6.226v2.692
	C71.363,42.144,68.498,43.988,64.556,43.988z M68.016,35.07c0-2.631-1.124-3.811-3.46-3.811c-2.336,0-3.46,1.175-3.46,3.811v2.692
	c0,2.636,1.124,3.811,3.46,3.811c2.336,0,3.46-1.175,3.46-3.811V35.07z M85.112,43.67c-1.246,0.217-2.509,0.324-3.773,0.318
	c-2.865,0-6.755-1.175-6.755-6.086v-2.949c0-5.009,3.89-6.086,6.755-6.086c1.265-0.005,2.527,0.101,3.773,0.318
	c0.309,0.08,0.524,0.178,0.524,0.468v1.339c0,0.239-0.122,0.421-0.468,0.421h-0.047c-0.833-0.061-2.458-0.159-3.745-0.159
	c-2.004,0-3.46,0.899-3.46,3.745v2.884c0,2.771,1.456,3.745,3.46,3.745c1.264,0,2.888-0.098,3.745-0.159h0.047
	c0.356,0,0.468,0.178,0.468,0.417v1.339C85.637,43.492,85.426,43.59,85.112,43.67z M99.152,43.712
	c-1.501,0.222-3.019,0.316-4.536,0.281c-3.104,0-5.515-0.698-5.515-4.092v-6.966c0-3.389,2.411-4.092,5.515-4.092
	c1.517-0.035,3.035,0.059,4.536,0.281c0.356,0.037,0.468,0.14,0.468,0.417v1.278c-0.035,0.231-0.235,0.401-0.468,0.398h-4.869
	c-1.404,0-1.873,0.398-1.873,1.713v2.153h6.47c0.233-0.003,0.433,0.167,0.468,0.398v1.437c-0.035,0.231-0.235,0.401-0.468,0.398
	h-6.484v2.575c0,1.315,0.501,1.713,1.873,1.713h4.869c0.233-0.003,0.433,0.167,0.468,0.398v1.278
	C99.629,43.548,99.508,43.67,99.152,43.712L99.152,43.712z M116.197,43.829h-2.528c-0.215,0.009-0.408-0.13-0.468-0.337l-1.1-3.792
	h-5.477l-1.1,3.792c-0.06,0.207-0.253,0.346-0.468,0.337h-2.533c-0.239,0-0.431-0.14-0.431-0.337
	c0.01-0.032,0.018-0.065,0.023-0.098l3.914-12.509c0.571-1.873,2.294-2.036,3.319-2.036c1.025,0,2.743,0.178,3.319,2.036
	l3.914,12.509c0.005,0.033,0.013,0.066,0.023,0.098C116.627,43.689,116.435,43.829,116.197,43.829z M109.75,31.498
	c-0.07-0.239-0.145-0.318-0.384-0.318c-0.239,0-0.309,0.08-0.384,0.318l-1.718,5.927h4.213L109.75,31.498z M131.931,43.829h-2.411
	c-0.571,0-1.072,0-1.456-0.716l-5.299-9.719c-0.07-0.122-0.145-0.159-0.215-0.159c-0.07,0-0.122,0.037-0.122,0.159v10.037
	c-0.011,0.232-0.209,0.412-0.442,0.4c-0.009,0-0.018-0.001-0.027-0.002h-2.027c-0.233,0.003-0.433-0.167-0.468-0.398V29.804
	c0.049-0.473,0.462-0.823,0.936-0.796h2.579c0.463-0.062,0.908,0.201,1.077,0.637l5.561,10.257c0.029,0.085,0.103,0.146,0.192,0.159
	c0.047,0,0.117-0.061,0.117-0.178V29.387c0.013-0.225,0.205-0.396,0.43-0.383c0.013,0.001,0.025,0.002,0.038,0.004h2.055
	c0.222-0.034,0.43,0.119,0.464,0.341c0.002,0.013,0.003,0.025,0.004,0.038v13.646c-0.048,0.489-0.484,0.846-0.973,0.797
	C131.941,43.83,131.936,43.83,131.931,43.829L131.931,43.829z M149.804,43.829h-2.528c-0.215,0.009-0.408-0.13-0.468-0.337
	l-1.1-3.792h-5.468l-1.1,3.792c-0.06,0.207-0.253,0.346-0.468,0.337h-2.528c-0.239,0-0.431-0.14-0.431-0.337
	c0.01-0.032,0.018-0.065,0.023-0.098l3.914-12.509c0.571-1.873,2.289-2.036,3.319-2.036c1.03,0,2.748,0.178,3.319,2.036
	l3.914,12.509c0.005,0.033,0.013,0.066,0.023,0.098C150.244,43.689,150.052,43.829,149.804,43.829L149.804,43.829z M143.367,31.498
	c-0.07-0.239-0.145-0.318-0.384-0.318c-0.239,0-0.309,0.08-0.384,0.318l-1.718,5.927h4.213L143.367,31.498z M165.688,43.829h-2.912
	c-0.262,0-0.36-0.201-0.468-0.398l-3.436-5.327h-0.332c-0.618,0-1.578-0.061-2.125-0.08v5.407c-0.011,0.232-0.209,0.412-0.442,0.4
	c-0.009,0-0.018-0.001-0.027-0.002h-2.397c-0.233,0.003-0.433-0.167-0.468-0.398V29.705c0-0.398,0.286-0.538,0.763-0.599
	c1.554-0.18,3.117-0.266,4.681-0.257c3.675,0,6.877,1.095,6.877,4.508v0.178c0,2.116-1.264,3.431-3.221,4.068l3.745,5.828
	c0.035,0.045,0.052,0.102,0.047,0.159C165.979,43.731,165.88,43.829,165.688,43.829L165.688,43.829z M162.107,33.357
	c0-1.498-1.194-2.135-3.581-2.135c-0.501,0-1.695,0.042-2.125,0.08v4.489c0.379,0,1.718,0.061,2.125,0.061
	c2.458,0,3.581-0.557,3.581-2.313V33.357z M172.111,43.829h-2.341c-0.233,0.003-0.433-0.167-0.468-0.398V29.387
	c0.027-0.233,0.235-0.401,0.468-0.379h2.341c0.233-0.022,0.441,0.147,0.468,0.379v14.044
	C172.544,43.662,172.345,43.832,172.111,43.829z M183.215,43.988c-3.843,0-6.554-1.404-6.554-5.646v-8.955
	c0.027-0.233,0.235-0.401,0.468-0.379h2.341c0.233-0.022,0.441,0.147,0.468,0.379v8.955c0,2.275,0.669,3.352,3.244,3.352
	c2.575,0,3.249-1.077,3.249-3.352v-8.955c0.027-0.233,0.235-0.401,0.468-0.379h2.341c0.233-0.022,0.441,0.147,0.468,0.379v8.955
	C189.779,42.612,187.059,43.988,183.215,43.988z M208.757,43.829h-2.411c-0.211-0.012-0.377-0.186-0.379-0.398v-9.279
	c0-0.14-0.023-0.201-0.07-0.201s-0.07,0.061-0.117,0.122l-2.294,3.811c-0.187,0.226-0.47,0.35-0.763,0.337h-2.411
	c-0.293,0.013-0.576-0.111-0.763-0.337l-2.317-3.811c-0.047-0.061-0.094-0.122-0.117-0.122s-0.07,0.061-0.07,0.201v9.279
	c-0.002,0.213-0.171,0.388-0.384,0.398h-2.411c-0.215,0-0.407-0.098-0.407-0.3V29.804c0.049-0.473,0.462-0.823,0.936-0.796h1.957
	c0.356-0.007,0.691,0.17,0.885,0.468l3.605,6.086c0.117,0.178,0.169,0.281,0.262,0.281c0.094,0,0.145-0.098,0.262-0.281l3.605-6.086
	c0.194-0.299,0.529-0.476,0.885-0.468h1.957c0.475-0.028,0.887,0.323,0.936,0.796v13.745
	C209.164,43.731,208.972,43.829,208.757,43.829L208.757,43.829z M77.711,23.516h-3.783c-0.899,0-1.685,0-2.285-1.128L63.311,7.15
	c-0.112-0.187-0.225-0.253-0.337-0.253c-0.112,0-0.187,0.061-0.187,0.253v15.744c-0.017,0.364-0.326,0.646-0.69,0.629
	c-0.007,0-0.014-0.001-0.022-0.001h-3.183c-0.379,0.03-0.712-0.249-0.749-0.627V1.514c0.079-0.754,0.742-1.309,1.498-1.255h4.026
	c0.713-0.078,1.389,0.333,1.648,1.002l8.745,16.071c0.044,0.134,0.16,0.232,0.3,0.253c0.075,0,0.187-0.094,0.187-0.281V0.859
	c0.021-0.354,0.325-0.623,0.678-0.602c0.011,0.001,0.022,0.002,0.033,0.003h3.221c0.352-0.04,0.669,0.214,0.709,0.566
	c0.001,0.01,0.002,0.019,0.003,0.029v21.413C79.109,23.011,78.458,23.561,77.711,23.516z M94.733,23.769
	c-6.179,0-10.674-2.879-10.674-9.765V9.791c0-6.886,4.494-9.765,10.674-9.765s10.674,2.879,10.674,9.765v4.213
	C105.406,20.89,100.912,23.769,94.733,23.769z M100.182,9.777c0-4.134-1.76-5.978-5.43-5.978s-5.43,1.849-5.43,5.978v4.213
	c0,4.134,1.76,5.978,5.43,5.978s5.43-1.835,5.43-5.964V9.777z M130.049,23.516h-4.588c-0.412,0-0.562-0.314-0.749-0.627
	l-5.374-8.366h-0.524c-0.974,0-2.472-0.094-3.333-0.126v8.497c-0.017,0.364-0.326,0.646-0.69,0.629
	c-0.007,0-0.014-0.001-0.022-0.001h-3.745c-0.379,0.03-0.712-0.249-0.749-0.627V1.359c0-0.627,0.468-0.847,1.198-0.936
	c2.435-0.284,4.884-0.422,7.336-0.412c5.767,0,10.767,1.723,10.767,7.074v0.281c0,3.319-1.985,5.384-5.056,6.385l5.903,9.143
	c0.056,0.072,0.082,0.162,0.075,0.253C130.498,23.362,130.349,23.516,130.049,23.516z M124.431,7.085
	c0-2.341-1.873-3.347-5.618-3.347c-0.786,0-2.659,0.061-3.333,0.126v7.022c0.599,0.033,2.696,0.094,3.333,0.094
	c3.857,0,5.618-0.875,5.618-3.633V7.085z M143.082,23.769c-2.659,0-6.254-0.22-7.378-0.375c-0.637-0.094-0.974-0.346-0.974-0.969
	V1.359c0-0.627,0.337-0.875,0.974-0.969c1.124-0.159,4.738-0.379,7.378-0.379c7.49,0,11.76,3.38,11.76,9.578v4.602
	C154.842,20.389,150.572,23.769,143.082,23.769z M149.673,9.589c0-4.681-2.846-5.917-6.591-5.917c-1.404,0-2.341,0.061-3.146,0.094
	V20.01c0.786,0.033,1.76,0.094,3.146,0.094c3.745,0,6.591-1.222,6.591-5.917V9.589z M166.714,23.769
	c-2.216,0.028-4.43-0.16-6.61-0.562c-0.374-0.061-0.712-0.281-0.712-0.627v-2.256c0.035-0.359,0.352-0.624,0.712-0.595h0.075
	c1.498,0.154,5.243,0.314,6.629,0.314c3.333,0,4.344-1.002,4.344-2.809c0-1.222-0.712-1.849-3.183-3.066l-4.962-2.481
	c-3.483-1.723-4.419-3.539-4.419-5.73c0-3.441,2.397-5.945,9.363-5.945c2.407,0.013,4.81,0.201,7.191,0.562
	c0.374,0.061,0.674,0.281,0.674,0.595v2.317c-0.014,0.325-0.29,0.578-0.615,0.563c-0.007,0-0.014-0.001-0.021-0.001h-0.094
	c-2.472-0.187-4.944-0.314-7.378-0.314c-2.771,0-3.932,0.815-3.932,2.224c0,1.035,0.637,1.657,3.071,2.809l4.494,2.097
	c4.12,1.91,5.206,3.914,5.206,6.385C176.563,20.389,174.204,23.769,166.714,23.769z M222.286,23.329
	c-2.355,0.347-4.736,0.495-7.116,0.44c-4.869,0-8.651-1.095-8.651-6.418V6.429c0-5.323,3.783-6.418,8.651-6.418
	c2.38-0.055,4.761,0.092,7.116,0.44c0.562,0.061,0.749,0.22,0.749,0.655V3.11c-0.027,0.384-0.361,0.674-0.745,0.646
	c-0.001,0-0.003,0-0.004,0h-7.64c-2.172,0-2.959,0.627-2.959,2.692v3.38h10.149c0.379-0.03,0.712,0.249,0.749,0.627v2.252
	c-0.037,0.378-0.37,0.657-0.749,0.627h-10.149v3.998c0,2.064,0.786,2.692,2.959,2.692h7.64c0.379-0.03,0.712,0.249,0.749,0.627
	v2.004C223.035,23.114,222.834,23.268,222.286,23.329L222.286,23.329z M247.645,23.516h-3.783c-0.899,0-1.685,0-2.285-1.128
	L233.259,7.15c-0.112-0.187-0.225-0.253-0.337-0.253s-0.187,0.061-0.187,0.253v15.744c-0.017,0.364-0.326,0.646-0.69,0.629
	c-0.007,0-0.014-0.001-0.021-0.001h-3.183c-0.379,0.03-0.712-0.249-0.749-0.627V1.514c0.081-0.752,0.744-1.305,1.498-1.25h4.045
	c0.713-0.078,1.389,0.333,1.648,1.002l8.726,16.067c0.044,0.134,0.16,0.232,0.3,0.253c0.075,0,0.187-0.094,0.187-0.281V0.859
	c0.021-0.354,0.325-0.623,0.678-0.602c0.011,0.001,0.022,0.002,0.033,0.003h3.221c0.352-0.04,0.669,0.214,0.709,0.566
	c0.001,0.01,0.002,0.019,0.003,0.029v21.413C249.058,23.017,248.398,23.569,247.645,23.516L247.645,23.516z M185.608,15.212
	c-0.033-0.384-0.056-0.786-0.056-1.208V9.791c0-4.134,1.76-5.978,5.43-5.978c1.234-0.065,2.457,0.262,3.492,0.936l2.809-3.319
	c-1.944-0.988-4.103-1.475-6.282-1.418c-6.179,0-10.674,2.879-10.674,9.765v4.213c0,2.369,0.529,4.265,1.484,5.73L185.608,15.212z
	 M196.333,8.48c0.05,0.43,0.075,0.863,0.075,1.297v4.213c0,4.134-1.76,5.978-5.43,5.978c-1.521,0-2.673-0.309-3.544-0.969
	l-2.809,3.324c1.741,0.983,3.895,1.428,6.353,1.428c6.179,0,10.674-2.879,10.674-9.765V9.772c0.075-2.036-0.462-4.048-1.54-5.777
	L196.333,8.48z"/>
</svg>
