<?xml version="1.0" encoding="utf-8"?>
<!-- Generator: Adobe Illustrator 22.1.0, SVG Export Plug-In . SVG Version: 6.00 Build 0)  -->
<svg version="1.1" id="Layer_1" xmlns="http://www.w3.org/2000/svg" xmlns:xlink="http://www.w3.org/1999/xlink" x="0px" y="0px"
	 width="97px" height="30px" viewBox="0 0 97 30" enable-background="new 0 0 97 30" xml:space="preserve">
<path fill="#FFFFFF" d="M26.514,13.558c3.018-1.872,5.119-3.859,5.119-6.686c0-3.591-3.324-6.227-7.029-6.227
	c-3.515,0-7.45,2.33-7.45,6.762c0,7.794,12.149,8.902,12.149,16.237c0,3.056-1.948,4.928-4.89,4.928
	c-2.751,0-5.387-2.292-5.387-5.501c0-2.484,1.032-4.738,3.019-6.572c0.115-0.115-0.039-0.305-0.268-0.153
	c-2.597,1.719-5.233,3.782-5.233,6.953c0,3.82,4.011,6.38,7.717,6.38c3.324,0,7.832-2.063,7.832-6.953
	c0-7.908-12.072-8.902-12.072-16.16c0-2.445,1.375-4.814,4.432-4.814c2.712,0,4.737,1.872,4.737,5.463
	c0,2.827-1.146,4.738-2.865,6.113C26.17,13.443,26.361,13.634,26.514,13.558L26.514,13.558z M54.746,14.131
	c-1.605,0-3.4-0.191-4.89-0.268c-0.076,0-0.115-0.038-0.115-0.076c0-0.153,0.344-0.229,0.42-0.306
	c0.344-0.191,0.496-1.146,0.496-2.063V3.204c0-0.458-0.038-1.566-0.458-1.834c-0.076-0.076-0.458-0.229-0.458-0.344
	c0-0.076,0.039-0.115,0.115-0.115c1.49-0.229,3.438-0.267,5.043-0.267c4.011,0,7.412,2.216,7.412,6.609
	C62.311,11.418,59.216,14.131,54.746,14.131L54.746,14.131z M54.632,1.753c-1.413,0-1.681,0.229-1.681,0.688v8.252
	c0,1.795,0.306,2.33,2.14,2.33c2.98,0,4.661-1.986,4.661-5.463C59.751,3.93,57.841,1.753,54.632,1.753L54.632,1.753z M12.493,13.825
	c0,0.267-0.267,0.344-0.42,0.153L3.019,4.045v3.629c0,3.248,0.153,4.699,0.496,5.387c0.306,0.573,0.764,0.497,0.764,0.688
	c0,0.077-0.077,0.115-0.153,0.115h-3.4c-0.077,0-0.115-0.038-0.115-0.115c0-0.191,0.496-0.115,0.764-0.688
	c0.344-0.726,0.497-2.33,0.497-5.806V2.708C1.414,2.058,0.688,1.409,0.153,1.18C0.04,1.131,0,1.103,0,1.026
	c0-0.115,0.077-0.153,0.153-0.153h3.095c0.115,0,0.229,0.115,0.305,0.229l7.832,8.558V6.337c0-1.872,0-3.63-0.306-4.355
	c-0.344-0.841-0.955-0.726-0.955-0.956c0-0.115,0.076-0.153,0.153-0.153h3.324c0.077,0,0.153,0.038,0.153,0.153
	c0,0.229-0.458,0.153-0.726,0.65c-0.344,0.573-0.535,1.91-0.535,4.508V13.825z M73.81,25.859c0,2.216,0.039,2.33,2.102,2.33
	c1.299,0,2.216-0.153,2.559-1.031c0.038-0.153,0.191-0.115,0.191,0l-0.229,2.063c0,0.115-0.115,0.191-0.229,0.191h-7.45
	c-0.077,0-0.115-0.038-0.115-0.115c0-0.191,0.344-0.038,0.611-0.458c0.191-0.306,0.306-0.917,0.306-2.063v-8.061
	c0-0.802-0.077-1.337-0.268-1.605c-0.305-0.42-0.649-0.383-0.649-0.535c0-0.115,0.076-0.153,0.153-0.153h6.8
	c0.191,0,0.191,0.115,0.191,0.267v1.452c0,0.153-0.153,0.115-0.191,0.038c-0.305-0.458-0.917-0.573-2.33-0.573H74.23
	c-0.382,0-0.42,0.344-0.42,2.559v1.796c0,0.115,0.039,0.153,0.115,0.153h1.032c0.994,0,1.529-0.038,1.834-0.153
	c0.458-0.153,0.42-0.42,0.573-0.42c0.077,0,0.115,0.039,0.115,0.115v1.987c0,0.076-0.038,0.153-0.115,0.153
	c-0.191,0-0.115-0.229-0.611-0.42c-0.306-0.115-0.879-0.191-1.948-0.191h-0.879c-0.076,0-0.115,0.038-0.115,0.115V25.859z
	 M70.066,10.31c0,2.216,0.038,2.331,2.101,2.331c1.299,0,2.216-0.153,2.559-1.032c0.039-0.153,0.191-0.115,0.191,0l-0.229,2.063
	c0,0.115-0.115,0.191-0.229,0.191h-7.45c-0.077,0-0.115-0.038-0.115-0.115c0-0.191,0.344-0.038,0.611-0.458
	c0.191-0.305,0.306-0.917,0.306-2.063V3.166c0-0.802-0.077-1.337-0.267-1.605c-0.306-0.42-0.65-0.382-0.65-0.535
	c0-0.115,0.077-0.153,0.153-0.153h6.801c0.191,0,0.191,0.115,0.191,0.267v1.452c0,0.153-0.153,0.115-0.191,0.038
	c-0.306-0.458-0.917-0.573-2.331-0.573h-1.032c-0.382,0-0.42,0.344-0.42,2.56v1.795c0,0.115,0.038,0.153,0.115,0.153h1.032
	c0.993,0,1.528-0.039,1.834-0.153c0.458-0.153,0.42-0.42,0.573-0.42c0.076,0,0.115,0.038,0.115,0.115v1.986
	c0,0.077-0.039,0.153-0.115,0.153c-0.191,0-0.115-0.229-0.612-0.42c-0.305-0.115-0.878-0.191-1.948-0.191h-0.878
	c-0.077,0-0.115,0.038-0.115,0.115V10.31z M12.799,18.066c0,0.153-0.153,0.229-0.306,0c-0.267-0.382-0.802-0.458-2.139-0.458H9.093
	c-0.191,0-0.383,0.153-0.383,1.796v2.559c0,0.115,0.039,0.153,0.115,0.153h1.146c0.994,0,1.529-0.038,1.834-0.153
	c0.458-0.153,0.42-0.42,0.573-0.42c0.077,0,0.115,0.039,0.115,0.115v1.987c0,0.076-0.038,0.153-0.115,0.153
	c-0.191,0-0.115-0.229-0.611-0.42c-0.306-0.115-0.879-0.191-1.948-0.191H8.825c-0.076,0-0.115,0.038-0.115,0.115v3.247
	c0,3.247,1.146,2.292,1.146,2.751c0,0.038-0.038,0.115-0.115,0.115H5.655c-0.077,0-0.115-0.038-0.115-0.115
	c0-0.191,0.344-0.038,0.611-0.458c0.191-0.306,0.306-0.917,0.306-2.063v-8.061c0-0.802-0.077-1.337-0.268-1.605
	c-0.305-0.42-0.649-0.383-0.649-0.535c0-0.115,0.076-0.153,0.153-0.153h6.877c0.191,0,0.229,0.115,0.229,0.267V18.066z
	 M46.532,14.131c-3.094,0-3.553-0.382-5.501-3.668L40.305,9.24c-0.306-0.496-0.65-0.611-0.955-0.611h-0.153
	c-0.267,0-0.305,0.153-0.305,0.305v2.521c0,2.446,0.993,2.063,0.993,2.331c0,0.038-0.038,0.076-0.115,0.076h-3.973
	c-0.077,0-0.115-0.038-0.115-0.076c0-0.344,0.917,0.382,0.917-2.331V3.128c0-2.407-0.917-1.796-0.917-2.14
	c0-0.077,0.038-0.115,0.115-0.115h3.438c2.292,0,4.89,0.611,4.89,3.438c0,1.719-1.222,2.636-2.101,3.171L43.4,9.622
	c1.261,1.948,2.789,4.203,4.279,4.203c0.077,0,0.229,0,0.229,0.077C47.908,14.092,47.297,14.131,46.532,14.131L46.532,14.131z
	 M39.159,1.829c-0.191,0-0.267,0.115-0.267,0.268v5.196c0,0.496,0.191,0.611,0.649,0.611c1.223,0,2.102-1.069,2.102-3.285
	C41.643,2.631,41.07,1.829,39.159,1.829L39.159,1.829z M81.603,13.175c0,0.229,0.153,0.383,0.535,0.458
	c0.153,0.039,0.115,0.229,0,0.229h-3.515c-0.153,0-0.153-0.229,0-0.229c0.229,0,0.383-0.038,0.535-0.115
	c0.496-0.267,0.764-0.764,1.337-2.139l4.622-11.003c0.038-0.077,0.153-0.077,0.191,0l4.775,11.193
	c0.268,0.65,0.535,1.796,1.643,2.063c0.153,0.039,0.153,0.229,0,0.229h-4.432c-0.191,0-0.191-0.191-0.038-0.229
	c0.726-0.115,0.688-0.726,0.382-1.49l-0.726-1.91H82.52l-0.611,1.68C81.795,12.22,81.603,12.755,81.603,13.175L81.603,13.175z
	 M84.775,4.656c-0.038-0.115-0.115-0.115-0.153,0l-1.643,4.393h3.477L84.775,4.656z M58.414,29.68c-1.605,0-3.4-0.191-4.89-0.268
	c-0.076,0-0.115-0.038-0.115-0.076c0-0.153,0.344-0.229,0.42-0.306c0.344-0.191,0.496-1.146,0.496-2.063v-8.214
	c0-0.458-0.038-1.566-0.458-1.834c-0.076-0.076-0.458-0.229-0.458-0.344c0-0.076,0.039-0.115,0.115-0.115
	c1.49-0.229,3.438-0.267,5.043-0.267c4.011,0,7.412,2.216,7.412,6.609C65.978,26.967,62.884,29.68,58.414,29.68L58.414,29.68z
	 M58.299,17.302c-1.413,0-1.681,0.229-1.681,0.688v8.252c0,1.795,0.306,2.33,2.14,2.33c2.98,0,4.661-1.986,4.661-5.463
	C63.419,19.48,61.508,17.302,58.299,17.302L58.299,17.302z M47.373,29.374c0,0.267-0.267,0.344-0.42,0.153l-9.054-9.932v3.629
	c0,3.248,0.153,4.699,0.496,5.387c0.306,0.573,0.764,0.497,0.764,0.688c0,0.077-0.077,0.115-0.153,0.115h-3.4
	c-0.077,0-0.115-0.038-0.115-0.115c0-0.191,0.496-0.115,0.764-0.688c0.344-0.726,0.497-2.33,0.497-5.806v-4.546
	c-0.458-0.65-1.185-1.299-1.719-1.528c-0.114-0.049-0.153-0.077-0.153-0.153c0-0.115,0.077-0.153,0.153-0.153h3.095
	c0.115,0,0.229,0.115,0.305,0.229l7.832,8.558v-3.324c0-1.872,0-3.63-0.306-4.355c-0.344-0.841-0.955-0.726-0.955-0.956
	c0-0.115,0.076-0.153,0.153-0.153h3.324c0.077,0,0.153,0.038,0.153,0.153c0,0.229-0.458,0.153-0.726,0.65
	c-0.344,0.573-0.535,1.91-0.535,4.508V29.374z M95.739,29.374c0,0.267-0.267,0.344-0.42,0.153l-9.054-9.932v3.629
	c0,3.248,0.153,4.699,0.496,5.387c0.306,0.573,0.764,0.497,0.764,0.688c0,0.077-0.077,0.115-0.153,0.115h-3.4
	c-0.077,0-0.115-0.038-0.115-0.115c0-0.191,0.496-0.115,0.764-0.688c0.344-0.726,0.497-2.33,0.497-5.806v-4.546
	c-0.458-0.65-1.185-1.299-1.719-1.528c-0.114-0.049-0.153-0.077-0.153-0.153c0-0.115,0.077-0.153,0.153-0.153h3.095
	c0.115,0,0.229,0.115,0.305,0.229l7.832,8.558v-3.324c0-1.872,0-3.63-0.306-4.355c-0.344-0.841-0.955-0.726-0.955-0.956
	c0-0.115,0.076-0.153,0.153-0.153h3.324c0.077,0,0.153,0.038,0.153,0.153c0,0.229-0.458,0.153-0.726,0.65
	c-0.344,0.573-0.535,1.91-0.535,4.508V29.374z"/>
</svg>
